<?xml version="1.0" standalone="no"?>
<!DOCTYPE svg PUBLIC "-//W3C//DTD SVG 20010904//EN"
 "http://www.w3.org/TR/2001/REC-SVG-20010904/DTD/svg10.dtd">
<svg version="1.0" xmlns="http://www.w3.org/2000/svg"
 width="1136.000000pt" height="653.000000pt" viewBox="0 0 1136.000000 653.000000"
 preserveAspectRatio="xMidYMid meet">

<g transform="translate(0.000000,653.000000) scale(0.100000,-0.100000)"
fill="#000000" stroke="none">
<path d="M4093 5395 c-110 -30 -223 -109 -274 -191 -11 -19 -25 -31 -31 -28
-6 4 -8 1 -6 -7 3 -8 -6 -44 -19 -81 -45 -127 -29 -280 41 -401 66 -112 205
-207 332 -227 38 -6 158 -9 267 -8 l199 3 -31 32 c-17 18 -31 41 -31 51 0 10
-13 31 -29 46 l-28 27 -49 -30 c-162 -100 -393 -69 -518 70 -25 28 -46 57 -46
65 0 8 -4 14 -9 14 -13 0 -49 107 -55 165 -8 65 9 153 41 222 38 79 104 143
197 188 75 36 85 39 170 38 76 0 102 -5 160 -28 92 -38 174 -117 218 -212 29
-62 32 -77 33 -163 0 -103 -11 -146 -57 -223 l-29 -50 22 -23 c12 -13 31 -24
41 -24 10 0 36 -16 58 -36 l40 -36 0 209 c0 116 -4 235 -10 264 -24 130 -125
270 -238 332 -101 55 -247 72 -359 42z"/>
<path d="M4106 5284 c-138 -44 -242 -175 -254 -319 -5 -63 13 -165 28 -165 16
0 22 22 9 31 -10 6 -14 33 -14 101 0 81 3 100 28 149 32 67 109 142 175 172
37 17 67 21 138 22 85 0 96 -2 159 -35 212 -108 255 -372 91 -548 -64 -68
-147 -105 -241 -106 -92 -1 -205 37 -181 61 3 3 23 -2 44 -10 22 -9 42 -13 46
-10 3 4 6 41 6 84 0 73 -2 81 -31 114 -37 42 -53 44 -75 10 -14 -21 -16 -42
-12 -110 l6 -85 -29 20 c-15 12 -37 32 -48 45 -20 26 -31 32 -31 15 0 -20 86
-94 137 -117 152 -70 322 -37 433 84 66 72 93 145 94 248 0 70 -4 90 -31 147
-38 82 -100 145 -177 183 -73 36 -192 44 -270 19z"/>
<path d="M5912 5264 c-55 -38 0 -121 65 -98 23 8 29 16 31 46 2 28 -2 40 -20
52 -28 20 -48 20 -76 0z"/>
<path d="M4990 5243 c-42 -15 -90 -82 -90 -125 0 -43 36 -86 82 -99 49 -14 84
-42 74 -58 -10 -16 -72 -14 -105 4 -28 14 -29 14 -45 -19 -26 -54 -21 -64 36
-81 101 -30 175 -14 222 47 19 26 26 47 26 80 0 55 -23 79 -100 105 -42 14
-55 23 -55 38 0 17 6 20 40 19 22 0 48 -4 57 -8 13 -6 20 -2 27 15 23 64 23
66 -10 78 -33 11 -132 14 -159 4z"/>
<path d="M6700 5060 l0 -190 125 0 125 0 0 45 0 44 -62 3 c-55 3 -63 5 -63 23
0 17 8 20 53 23 l52 3 0 45 0 44 -49 0 c-54 0 -66 9 -56 40 5 17 15 20 60 20
57 0 65 7 65 61 l0 29 -125 0 -125 0 0 -190z"/>
<path d="M6487 5214 c-4 -4 -7 -25 -7 -47 0 -30 -4 -40 -20 -44 -16 -4 -20
-14 -20 -45 0 -31 4 -41 20 -45 18 -5 20 -14 20 -89 l0 -84 60 0 60 0 0 84 c0
75 2 84 20 89 29 7 29 82 1 90 -15 4 -20 15 -23 48 l-3 44 -50 3 c-28 2 -54 0
-58 -4z"/>
<path d="M5260 4942 c0 -122 -4 -182 -12 -190 -17 -17 8 -24 72 -20 l53 3 -2
73 c-1 39 0 72 3 72 3 0 21 -9 41 -21 42 -25 75 -20 111 16 14 14 28 25 32 25
4 0 5 36 1 80 -7 103 -27 134 -88 138 -28 2 -52 -3 -68 -14 -24 -15 -27 -15
-38 0 -8 11 -27 16 -59 16 l-46 0 0 -178z m188 52 c4 -40 -29 -74 -53 -54 -48
40 -37 93 18 88 28 -3 32 -7 35 -34z"/>
<path d="M5620 4990 l0 -130 59 0 58 0 6 67 c5 72 20 93 64 93 21 0 23 4 23
50 0 42 -3 50 -18 50 -10 0 -27 -7 -38 -15 -25 -19 -34 -19 -34 0 0 12 -13 15
-60 15 l-60 0 0 -130z"/>
<path d="M5890 4990 l0 -130 60 0 60 0 0 130 0 130 -60 0 -60 0 0 -130z"/>
<path d="M6100 4990 l0 -130 60 0 60 0 0 80 c0 63 3 82 15 86 32 12 45 -15 45
-92 l0 -74 55 0 55 0 0 104 c0 89 -3 107 -21 130 -16 21 -29 26 -63 26 -23 0
-51 -7 -62 -15 -25 -19 -34 -19 -34 0 0 12 -13 15 -55 15 l-55 0 0 -130z"/>
<path d="M7030 4990 l0 -130 55 0 55 0 0 60 c0 68 21 100 65 100 23 0 25 3 25
50 0 43 -3 50 -19 50 -11 0 -26 -7 -35 -15 -8 -8 -19 -15 -25 -15 -6 0 -11 7
-11 15 0 12 -13 15 -55 15 l-55 0 0 -130z"/>
<path d="M7290 4935 c0 -102 -1 -188 -2 -192 -3 -9 98 -17 117 -10 8 4 9 22 4
69 -4 34 -4 67 0 71 5 4 25 -2 45 -14 42 -25 70 -21 110 16 15 14 32 25 39 25
8 0 8 3 0 11 -7 7 -9 25 -6 40 9 48 -7 119 -32 145 -30 30 -98 33 -128 7 -18
-17 -19 -17 -32 0 -9 12 -26 17 -64 17 l-51 0 0 -185z m194 79 c11 -30 6 -53
-16 -68 -39 -28 -82 19 -58 64 13 25 65 28 74 4z"/>
<path d="M4332 5083 c-33 -4 -33 -5 -17 -23 17 -19 15 -23 -60 -102 -43 -46
-82 -84 -86 -86 -5 -2 -28 12 -51 32 -23 20 -45 36 -49 36 -4 0 -31 -28 -61
-62 l-53 -63 59 50 59 50 43 -49 c24 -26 48 -46 53 -44 5 1 43 35 83 73 117
111 115 110 133 95 20 -17 21 -15 30 48 l7 52 -29 -2 c-15 0 -43 -3 -61 -5z"/>
<path d="M4330 4925 c-12 -13 -26 -23 -29 -21 -8 5 -5 -273 3 -281 3 -3 27 5
53 19 l48 24 3 120 c3 124 -6 164 -38 164 -9 0 -27 -11 -40 -25z"/>
<path d="M4212 4812 l-53 -48 3 -74 3 -75 53 -3 52 -3 0 125 c0 70 -1 126 -2
126 -2 -1 -27 -22 -56 -48z"/>
<path d="M6235 4760 l-29 -30 59 0 59 0 -29 30 c-16 17 -29 30 -30 30 -1 0
-14 -13 -30 -30z"/>
<path d="M6314 4636 c-9 -22 0 -101 11 -99 14 4 19 113 5 113 -6 0 -13 -6 -16
-14z"/>
<path d="M6164 4590 c0 -27 6 -50 11 -50 6 0 11 23 11 50 1 35 -2 50 -11 50
-9 0 -12 -15 -11 -50z"/>
<path d="M7180 4590 c0 -38 4 -50 15 -50 16 0 19 19 9 69 -10 48 -24 37 -24
-19z"/>
<path d="M5180 4623 c0 -5 7 -17 15 -27 8 -11 15 -28 15 -37 0 -25 19 -34 26
-12 3 10 12 31 20 47 17 34 11 45 -16 28 -12 -7 -21 -8 -25 -2 -7 12 -35 14
-35 3z"/>
<path d="M5610 4587 c0 -24 3 -46 6 -50 9 -9 34 4 34 18 0 7 11 16 25 19 16 4
25 13 25 25 0 21 -19 31 -61 31 -28 0 -29 -2 -29 -43z"/>
<path d="M5831 4616 c-14 -16 -2 -77 16 -83 12 -4 25 61 16 83 -7 18 -17 18
-32 0z"/>
<path d="M6096 4613 c-7 -23 6 -72 19 -73 16 -2 28 60 14 76 -15 19 -26 18
-33 -3z"/>
<path d="M6468 4619 c-21 -12 -24 -49 -6 -67 7 -7 27 -12 45 -12 26 0 36 6 45
25 21 46 -36 82 -84 54z m52 -34 c0 -8 -6 -15 -14 -15 -17 0 -28 14 -19 24 12
12 33 6 33 -9z"/>
<path d="M6810 4580 c0 -52 12 -64 30 -30 6 11 17 20 24 20 8 0 19 7 26 15 19
22 -5 45 -46 45 l-34 0 0 -50z"/>
<path d="M5384 4596 c-13 -33 0 -51 36 -51 29 0 36 4 38 24 5 33 -17 53 -24
23 -7 -24 -24 -30 -24 -8 0 21 -19 30 -26 12z"/>
<path d="M5485 4602 c-9 -9 -6 -60 4 -66 5 -3 18 9 29 28 l20 34 -24 5 c-13 2
-26 2 -29 -1z"/>
<path d="M5995 4601 c-9 -8 -5 -60 4 -66 6 -3 15 5 22 17 l12 22 8 -23 c11
-29 29 -18 29 18 0 25 -4 29 -35 33 -20 2 -38 2 -40 -1z"/>
<path d="M6243 4602 c-29 -3 -33 -7 -33 -32 0 -24 4 -28 35 -32 42 -5 45 -3
45 33 0 33 -4 36 -47 31z m17 -32 c0 -5 -4 -10 -10 -10 -5 0 -10 5 -10 10 0 6
5 10 10 10 6 0 10 -4 10 -10z"/>
<path d="M6685 4602 c-9 -9 -5 -61 5 -67 6 -3 13 2 17 12 3 10 12 25 20 34 12
15 11 17 -11 21 -14 3 -28 3 -31 0z"/>
<path d="M6955 4601 c-24 -5 -30 -11 -30 -31 0 -19 6 -26 32 -31 38 -8 43 -4
43 32 0 33 -6 37 -45 30z"/>
<path d="M7335 4602 c-9 -9 -5 -61 5 -67 6 -3 15 6 22 22 11 27 12 27 15 6 6
-34 35 -30 31 4 -2 22 -10 29 -35 34 -18 3 -35 4 -38 1z"/>
<path d="M5284 4585 c-10 -25 4 -45 29 -45 34 0 54 25 37 45 -7 8 -23 15 -37
15 -13 0 -26 -7 -29 -15z"/>
<path d="M5727 4586 c-12 -29 4 -47 37 -44 26 2 31 7 31 28 0 21 -5 26 -31 28
-21 2 -33 -2 -37 -12z"/>
<path d="M5894 4586 c-11 -28 4 -46 36 -46 34 0 42 19 8 21 l-23 1 23 6 c35
10 31 27 -6 30 -22 2 -34 -2 -38 -12z"/>
<path d="M6582 4573 c2 -23 8 -29 36 -31 30 -3 32 -1 32 27 0 34 -25 44 -33
14 -4 -17 -5 -17 -6 0 0 9 -8 17 -17 17 -11 0 -14 -8 -12 -27z"/>
<path d="M7025 4591 c-3 -5 -1 -13 5 -16 8 -5 7 -11 -1 -21 -9 -11 -7 -14 14
-14 31 0 38 9 30 38 -5 22 -37 30 -48 13z"/>
<path d="M7102 4570 c1 -24 5 -30 24 -30 25 0 40 15 25 25 -6 3 -8 12 -4 20 4
11 -2 15 -20 15 -22 0 -26 -4 -25 -30z"/>
<path d="M7230 4586 c-18 -22 5 -48 39 -44 20 2 26 9 26 28 0 19 -6 26 -26 28
-14 2 -31 -4 -39 -12z"/>
<path d="M6360 4550 c0 -5 7 -10 15 -10 8 0 15 5 15 10 0 6 -7 10 -15 10 -8 0
-15 -4 -15 -10z"/>
<path d="M7430 4550 c0 -5 7 -10 15 -10 8 0 15 5 15 10 0 6 -7 10 -15 10 -8 0
-15 -4 -15 -10z"/>
<path d="M3020 2420 l0 -310 70 0 70 0 0 160 0 160 24 6 c81 20 96 -10 96
-188 l0 -138 71 0 72 0 -5 163 c-4 139 -8 168 -26 203 -37 73 -127 96 -196 49
l-36 -24 0 114 0 115 -70 0 -70 0 0 -310z"/>
<path d="M6080 2620 l0 -109 -35 21 c-56 32 -119 21 -166 -30 -47 -49 -62
-104 -57 -202 6 -128 54 -190 153 -198 44 -4 55 -1 84 23 32 27 32 27 38 6 5
-18 12 -21 64 -21 l59 0 0 310 0 310 -70 0 -70 0 0 -110z m-12 -192 c8 -8 12
-46 12 -103 0 -101 -7 -115 -55 -115 -51 0 -68 28 -68 109 0 88 18 121 66 121
18 0 38 -5 45 -12z"/>
<path d="M7770 2685 l0 -45 70 0 70 0 0 45 0 45 -70 0 -70 0 0 -45z"/>
<path d="M8000 2420 l0 -310 65 0 65 0 0 310 0 310 -65 0 -65 0 0 -310z"/>
<path d="M8220 2420 l0 -310 70 0 70 0 0 310 0 310 -70 0 -70 0 0 -310z"/>
<path d="M9850 2620 l0 -109 -35 21 c-56 32 -119 21 -166 -30 -47 -49 -62
-104 -57 -202 6 -128 54 -190 153 -198 44 -4 55 -1 84 23 32 27 32 27 38 6 5
-18 12 -21 64 -21 l59 0 0 310 0 310 -70 0 -70 0 0 -110z m-12 -192 c8 -8 12
-46 12 -103 0 -101 -7 -115 -55 -115 -51 0 -68 28 -68 109 0 88 18 121 66 121
18 0 38 -5 45 -12z"/>
<path d="M1328 2695 c-5 -5 -8 -138 -8 -297 l0 -288 70 0 70 0 0 99 0 99 93 4
c113 5 168 31 206 98 33 58 27 152 -12 203 -47 62 -96 78 -264 84 -81 3 -151
2 -155 -2z m284 -125 c30 -23 40 -62 26 -102 -14 -39 -35 -48 -112 -48 l-66 0
0 85 0 85 64 0 c48 0 69 -5 88 -20z"/>
<path d="M5132 2688 c-52 -18 -118 -82 -139 -136 -25 -66 -25 -238 0 -304 69
-179 339 -200 442 -34 30 49 30 51 30 186 0 135 0 137 -30 186 -45 72 -106
106 -198 110 -39 2 -87 -2 -105 -8z m158 -118 c33 -33 40 -64 40 -171 0 -149
-23 -189 -108 -189 -80 0 -112 54 -112 190 0 94 14 143 47 170 35 27 106 27
133 0z"/>
<path d="M7240 2401 l0 -291 148 0 c81 0 164 5 185 11 82 22 137 106 122 185
-7 38 -49 94 -71 94 -20 0 -18 5 15 37 40 40 49 98 23 156 -16 35 -30 49 -68
68 -44 22 -65 24 -201 27 l-153 4 0 -291z m280 159 c51 -51 4 -110 -86 -110
l-54 0 0 65 0 65 60 0 c47 0 64 -4 80 -20z m26 -225 c19 -26 18 -74 -3 -97
-13 -14 -31 -18 -90 -18 l-73 0 0 71 0 71 76 -4 c60 -3 79 -7 90 -23z"/>
<path d="M8702 2402 c-51 -158 -92 -291 -92 -295 0 -5 30 -7 67 -5 l67 3 17
55 16 55 91 3 90 3 19 -58 18 -58 68 -3 c37 -2 67 1 66 5 0 4 -42 136 -92 293
l-93 285 -75 3 -75 3 -92 -289z m201 16 l25 -88 -60 0 c-49 0 -59 3 -55 15 4
8 16 51 28 95 12 44 26 77 30 73 4 -4 18 -47 32 -95z"/>
<path d="M2479 2525 c-29 -30 -39 -31 -39 -5 0 18 -7 20 -65 20 l-65 0 0 -215
0 -215 70 0 70 0 0 143 c0 98 4 147 12 155 7 7 31 12 54 12 l41 0 7 46 c11 81
10 84 -28 84 -23 0 -41 -8 -57 -25z"/>
<path d="M2716 2540 c-75 -24 -125 -109 -126 -213 0 -144 75 -227 208 -227 83
0 158 55 169 123 l6 37 -62 0 c-56 0 -62 -2 -71 -25 -14 -36 -73 -36 -97 1
-23 36 -23 142 1 178 24 37 75 33 94 -6 12 -26 18 -28 73 -28 58 0 59 0 59 29
0 33 -33 85 -73 115 -31 23 -131 32 -181 16z"/>
<path d="M3585 2537 c-54 -22 -75 -37 -90 -67 -28 -53 -22 -60 50 -60 54 0 66
3 75 20 12 23 59 27 78 8 7 -7 12 -27 12 -45 l0 -33 -62 0 c-72 0 -136 -25
-162 -61 -9 -14 -16 -43 -16 -71 0 -41 5 -54 33 -85 29 -31 41 -37 88 -40 46
-4 60 -1 91 20 36 25 37 25 43 6 6 -16 16 -19 77 -19 63 0 69 2 62 18 -4 9
-10 85 -13 169 -6 164 -12 180 -73 226 -32 24 -148 33 -193 14z m125 -282 c0
-38 -20 -55 -64 -55 -32 0 -51 32 -36 59 12 23 25 29 68 30 30 1 32 -1 32 -34z"/>
<path d="M4013 2540 c-73 -23 -119 -107 -93 -170 17 -41 54 -66 131 -86 70
-19 105 -44 96 -68 -15 -38 -102 -31 -117 9 -9 23 -15 25 -70 25 -52 0 -60 -3
-60 -19 0 -32 44 -85 90 -109 38 -20 56 -23 115 -19 82 4 128 25 155 70 25 40
25 83 1 122 -19 32 -55 51 -156 82 -64 19 -78 38 -49 67 23 23 67 17 79 -11 9
-21 17 -23 78 -23 l69 0 -6 26 c-11 42 -35 71 -73 89 -43 21 -145 28 -190 15z"/>
<path d="M4440 2528 c-76 -39 -116 -123 -108 -228 5 -73 34 -128 87 -165 39
-27 50 -30 125 -30 59 0 93 5 124 19 23 10 42 22 42 26 0 4 -7 24 -16 45 -12
29 -19 35 -32 29 -9 -4 -43 -10 -75 -12 -64 -4 -100 11 -110 47 -5 20 -1 21
119 21 l124 0 0 63 c-1 96 -43 170 -113 196 -47 18 -119 13 -167 -11z m139
-119 c6 -18 11 -34 11 -35 0 -2 -27 -4 -61 -4 -58 0 -60 1 -53 23 11 36 25 47
59 47 28 0 35 -5 44 -31z"/>
<path d="M5699 2519 l-29 -31 0 26 c0 25 -2 26 -65 26 l-65 0 0 -215 0 -215
70 0 70 0 0 143 c0 98 4 147 12 155 7 7 31 12 55 12 40 0 43 2 43 28 0 15 3
44 6 65 l7 37 -38 0 c-29 0 -44 -7 -66 -31z"/>
<path d="M6389 2527 c-33 -18 -51 -37 -72 -78 -26 -49 -28 -61 -25 -141 3 -79
6 -90 34 -125 60 -76 159 -102 268 -69 71 22 77 29 58 77 -11 30 -19 38 -31
33 -9 -4 -44 -9 -79 -12 -56 -4 -66 -2 -88 19 -46 43 -35 49 102 49 l127 0 -6
70 c-8 94 -37 148 -97 178 -60 30 -133 30 -191 -1z m141 -106 c22 -42 14 -51
-45 -51 -59 0 -67 9 -45 51 15 26 75 26 90 0z"/>
<path d="M6889 2519 l-29 -31 0 26 c0 25 -2 26 -65 26 l-65 0 0 -215 0 -215
70 0 70 0 0 143 c0 98 4 147 12 155 7 7 31 12 55 12 40 0 43 2 43 28 0 15 3
44 6 65 l7 37 -38 0 c-29 0 -44 -7 -66 -31z"/>
<path d="M9335 2538 c-11 -6 -30 -20 -42 -31 l-23 -20 0 26 c0 27 -1 27 -65
27 l-65 0 0 -215 0 -215 70 0 70 0 0 159 c0 173 -1 171 59 171 47 0 51 -12 51
-177 l0 -153 70 0 70 0 0 165 c0 187 -8 222 -62 255 -36 22 -101 26 -133 8z"/>
<path d="M1850 2380 c0 -174 7 -206 54 -249 18 -18 41 -26 78 -29 45 -3 59 0
91 22 38 26 39 26 44 6 5 -17 13 -20 64 -20 l59 0 0 215 0 215 -70 0 -70 0 0
-159 c0 -173 1 -171 -59 -171 -47 0 -51 12 -51 177 l0 153 -70 0 -70 0 0 -160z"/>
<path d="M7770 2325 l0 -215 70 0 70 0 0 215 0 215 -70 0 -70 0 0 -215z"/>
<path d="M3040 1120 l0 -310 65 0 65 0 0 153 c0 106 4 157 12 165 7 7 29 12
50 12 52 0 58 -19 58 -191 l0 -139 70 0 70 0 0 148 c-1 176 -15 233 -69 269
-47 31 -105 30 -154 -2 l-37 -26 0 116 0 115 -65 0 -65 0 0 -310z"/>
<path d="M3510 1385 l0 -45 65 0 65 0 0 45 0 45 -65 0 -65 0 0 -45z"/>
<path d="M7990 1385 l0 -45 70 0 70 0 0 45 0 45 -70 0 -70 0 0 -45z"/>
<path d="M8220 1120 l0 -310 70 0 70 0 0 310 0 310 -70 0 -70 0 0 -310z"/>
<path d="M2658 1386 c-93 -33 -131 -83 -125 -164 6 -82 45 -116 199 -172 71
-26 108 -55 108 -84 0 -50 -67 -76 -135 -54 -32 10 -42 20 -51 48 -11 34 -13
35 -69 38 -32 2 -62 -1 -67 -6 -16 -16 10 -86 44 -119 49 -46 95 -65 170 -71
89 -6 151 12 198 57 93 90 43 228 -102 278 -29 10 -75 29 -103 43 -43 22 -50
30 -53 58 -3 29 0 34 34 48 53 22 112 5 127 -37 11 -28 14 -29 74 -29 61 0 63
1 63 25 0 57 -56 119 -129 144 -45 15 -137 13 -183 -3z"/>
<path d="M6290 1100 l0 -291 148 3 c145 3 150 4 198 33 30 19 60 49 79 79 29
48 30 53 30 176 0 123 -1 128 -30 176 -19 30 -49 60 -79 79 -48 29 -53 30
-198 33 l-148 4 0 -292z m286 149 c29 -30 29 -31 29 -149 0 -118 0 -119 -29
-149 -27 -28 -36 -31 -88 -31 l-58 0 0 180 0 180 58 0 c52 0 61 -3 88 -31z"/>
<path d="M5810 1295 c0 -54 0 -55 -30 -55 -29 0 -30 -2 -30 -45 0 -43 1 -45
30 -45 l30 0 0 -126 c0 -145 12 -183 65 -208 36 -17 121 -21 144 -7 10 7 12
21 7 54 -7 42 -9 46 -39 49 l-32 3 -3 118 -3 117 36 0 c35 0 35 0 35 45 0 45
0 45 -35 45 l-35 0 0 55 0 55 -70 0 -70 0 0 -55z"/>
<path d="M7280 1295 c0 -54 0 -55 -30 -55 -29 0 -30 -2 -30 -45 0 -43 1 -45
30 -45 l30 0 0 -112 c0 -131 10 -175 46 -209 22 -21 35 -24 97 -24 l72 0 0 50
c0 50 0 50 -35 55 l-35 5 -3 118 -3 117 36 0 c35 0 35 0 35 45 0 45 0 45 -35
45 l-35 0 0 55 0 55 -70 0 -70 0 0 -55z"/>
<path d="M4380 1239 c-13 -5 -33 -17 -42 -26 -17 -15 -18 -15 -18 5 0 20 -5
22 -70 22 l-70 0 0 -215 0 -215 70 0 70 0 0 153 c0 167 3 177 55 177 52 0 55
-10 55 -177 l0 -153 70 0 70 0 0 159 c0 173 -1 171 60 171 19 0 33 -7 40 -19
5 -11 10 -84 10 -165 l0 -146 71 0 71 0 -4 168 c-4 176 -11 204 -57 246 -46
41 -161 28 -193 -23 -10 -17 -13 -16 -38 12 -21 24 -36 30 -76 33 -27 2 -60
-1 -74 -7z"/>
<path d="M4990 1228 c-76 -39 -116 -123 -108 -228 5 -73 34 -128 87 -165 39
-27 50 -30 125 -30 59 0 93 5 124 19 23 10 42 22 42 26 0 4 -7 24 -16 45 -12
29 -19 35 -32 29 -9 -4 -43 -10 -75 -12 -64 -4 -100 11 -110 47 -5 20 -1 21
119 21 l124 0 0 63 c-1 96 -43 170 -113 196 -47 18 -119 13 -167 -11z m139
-119 c6 -18 11 -34 11 -35 0 -2 -27 -4 -61 -4 -58 0 -60 1 -53 23 11 36 25 47
59 47 28 0 35 -5 44 -31z"/>
<path d="M5530 1243 c-8 -3 -27 -14 -42 -24 -33 -24 -38 -24 -38 1 0 18 -7 20
-65 20 l-65 0 0 -215 0 -215 70 0 70 0 0 159 c0 175 -2 171 66 171 48 0 54
-22 54 -191 l0 -139 65 0 65 0 0 174 c0 164 -1 175 -23 207 -12 18 -34 39 -47
46 -26 13 -83 16 -110 6z"/>
<path d="M6920 1228 c-76 -39 -116 -123 -108 -228 5 -73 34 -128 87 -165 39
-27 50 -30 125 -30 59 0 93 5 124 19 23 10 42 22 42 26 0 4 -7 24 -16 45 -12
29 -19 35 -32 29 -9 -4 -43 -10 -75 -12 -64 -4 -100 11 -110 47 -5 20 -1 21
119 21 l124 0 0 63 c-1 96 -43 170 -113 196 -47 18 -119 13 -167 -11z m139
-119 c6 -18 11 -34 11 -35 0 -2 -27 -4 -61 -4 -58 0 -60 1 -53 23 11 36 25 47
59 47 28 0 35 -5 44 -31z"/>
<path d="M7645 1235 c-48 -17 -95 -66 -95 -100 0 -24 3 -25 63 -25 51 0 64 3
75 20 16 27 68 27 82 1 5 -11 10 -31 10 -44 0 -23 -3 -25 -79 -29 -85 -5 -118
-19 -147 -64 -22 -32 -21 -104 1 -137 38 -58 136 -74 198 -33 35 24 36 24 42
5 6 -16 16 -19 76 -19 54 0 68 3 62 13 -4 6 -10 83 -13 169 -5 137 -8 161 -26
185 -47 65 -158 90 -249 58z m135 -280 c0 -24 -6 -37 -19 -45 -26 -14 -64 -13
-79 2 -32 32 6 78 65 78 31 0 33 -2 33 -35z"/>
<path d="M8525 1235 c-61 -21 -95 -65 -95 -121 0 -39 5 -51 33 -79 20 -20 51
-38 78 -44 110 -28 138 -51 109 -86 -25 -30 -110 -6 -110 31 0 11 -14 14 -60
14 -54 0 -60 -2 -60 -20 0 -35 28 -77 66 -101 56 -34 165 -38 223 -7 60 31 86
68 84 120 -3 68 -57 109 -180 133 -36 7 -56 27 -51 51 8 41 80 44 93 4 5 -17
15 -20 71 -20 62 0 64 1 64 26 0 35 -55 89 -105 103 -53 15 -111 13 -160 -4z"/>
<path d="M3510 1025 l0 -215 65 0 65 0 0 215 0 215 -65 0 -65 0 0 -215z"/>
<path d="M3727 1233 c-4 -3 -7 -138 -7 -300 l0 -293 70 0 70 0 0 101 0 100 26
-20 c19 -15 41 -21 77 -21 107 0 162 75 162 220 -1 96 -21 148 -75 194 -41 34
-123 37 -163 6 -25 -20 -25 -20 -30 0 -4 17 -14 20 -64 20 -33 0 -63 -3 -66
-7z m239 -114 c15 -17 19 -36 19 -99 0 -63 -4 -82 -19 -99 -23 -25 -53 -27
-84 -5 -20 14 -22 24 -22 104 0 80 2 90 22 104 31 22 61 20 84 -5z"/>
<path d="M7990 1025 l0 -215 70 0 70 0 0 215 0 215 -70 0 -70 0 0 -215z"/>
</g>
</svg>
